<?xml version="1.0" encoding="UTF-8" standalone="no"?>
<!-- Created with Inkscape (http://www.inkscape.org/) -->

<svg
   xmlns:osb="http://www.openswatchbook.org/uri/2009/osb"
   xmlns:dc="http://purl.org/dc/elements/1.1/"
   xmlns:cc="http://creativecommons.org/ns#"
   xmlns:rdf="http://www.w3.org/1999/02/22-rdf-syntax-ns#"
   xmlns:svg="http://www.w3.org/2000/svg"
   xmlns="http://www.w3.org/2000/svg"
   xmlns:xlink="http://www.w3.org/1999/xlink"
   xmlns:sodipodi="http://sodipodi.sourceforge.net/DTD/sodipodi-0.dtd"
   xmlns:inkscape="http://www.inkscape.org/namespaces/inkscape"
   width="524.40942"
   height="744.09448"
   id="svg2"
   version="1.1"
   inkscape:version="0.48.3.1 r9886"
   sodipodi:docname="flyer-A5.svg">
  <defs
     id="defs4">
    <filter
       color-interpolation-filters="sRGB"
       id="filter5728"
       inkscape:collect="always">
      <feGaussianBlur
         id="feGaussianBlur5730"
         stdDeviation="3.2896318"
         inkscape:collect="always" />
    </filter>
    <linearGradient
       osb:paint="solid"
       id="linearGradient5439">
      <stop
         id="stop5441"
         offset="0"
         style="stop-color:#93b76b;stop-opacity:1;" />
    </linearGradient>
    <linearGradient
       osb:paint="solid"
       id="linearGradient6445">
      <stop
         id="stop6447"
         offset="0"
         style="stop-color:#000000;stop-opacity:1;" />
    </linearGradient>
  </defs>
  <sodipodi:namedview
     id="base"
     pagecolor="#ffffff"
     bordercolor="#666666"
     borderopacity="1.0"
     inkscape:pageopacity="0.0"
     inkscape:pageshadow="2"
     inkscape:zoom="0.86144974"
     inkscape:cx="262.20471"
     inkscape:cy="372.04724"
     inkscape:document-units="px"
     inkscape:current-layer="layer1"
     showgrid="false"
     showguides="false"
     inkscape:guide-bbox="true"
     inkscape:snap-to-guides="true"
     inkscape:snap-bbox="true"
     inkscape:snap-bbox-midpoints="true"
     inkscape:snap-bbox-edge-midpoints="false"
     inkscape:bbox-paths="false"
     inkscape:snap-nodes="true"
     inkscape:window-width="1600"
     inkscape:window-height="849"
     inkscape:window-x="0"
     inkscape:window-y="0"
     inkscape:window-maximized="1">
    <inkscape:grid
       type="xygrid"
       id="grid2985"
       empspacing="5"
       visible="true"
       enabled="true"
       snapvisiblegridlinesonly="true"
       units="mm"
       spacingx="1mm"
       spacingy="1mm" />
    <sodipodi:guide
       orientation="0,1"
       position="435.82677,53.149606"
       id="guide2987" />
    <sodipodi:guide
       orientation="0,1"
       position="35.433071,690.94488"
       id="guide2989" />
    <sodipodi:guide
       orientation="1,0"
       position="53.149606,708.66142"
       id="guide2995" />
    <sodipodi:guide
       orientation="1,0"
       position="471.25984,705.11811"
       id="guide2997" />
  </sodipodi:namedview>
  <metadata
     id="metadata7">
    <rdf:RDF>
      <cc:Work
         rdf:about="">
        <dc:format>image/svg+xml</dc:format>
        <dc:type
           rdf:resource="http://purl.org/dc/dcmitype/StillImage" />
      </cc:Work>
    </rdf:RDF>
  </metadata>
  <g
     inkscape:label="Layer 1"
     inkscape:groupmode="layer"
     id="layer1"
     transform="translate(0,-308.26769)">
    <rect
       style="fill:#ffffff;fill-opacity:0.94117647;stroke:none"
       id="rect5077"
       width="28.346441"
       height="28.346441"
       x="83.267723"
       y="861.02362" />
    <rect
       y="861.02356"
       x="412.79529"
       height="28.346422"
       width="28.346422"
       id="rect5079"
       style="fill:#ffffff;fill-opacity:0.94117647;stroke:none" />
    <g
       id="g3145"
       transform="matrix(0.37513115,0,0,0.37513115,53.149606,361.21909)">
      <g
         transform="matrix(0.43434985,0,0,0.43434985,-5.9327777e-8,-52.777399)"
         id="g6179" />
      <g
         transform="matrix(0.43434985,0,0,0.43434985,-19.571069,-22.396621)"
         id="g4503">
        <g
           id="g6210">
          <g
             transform="matrix(-0.80901699,0.58778526,-0.58778526,-0.80901699,1701.9139,446.58134)"
             id="g5864"
             inkscape:transform-center-x="0.15805084"
             inkscape:transform-center-y="397.64079">
            <path
               sodipodi:nodetypes="cc"
               inkscape:connector-curvature="0"
               id="path5866"
               d="m 1182.5825,358.6967 100.599,-138.46257"
               style="fill:none;stroke:#003100;stroke-width:5;stroke-linecap:butt;stroke-linejoin:miter;stroke-miterlimit:4;stroke-opacity:1;stroke-dasharray:none" />
            <path
               style="fill:#217200;fill-opacity:1;stroke:none"
               d="m 1197.5377,335.15376 c 0.1483,-0.12071 18.8711,-25.82757 41.6069,-57.12589 l 41.334,-56.90829 -38.1706,12.30144 c -20.9943,6.76469 -38.2046,12.3672 -38.2454,12.44983 -0.041,0.0809 0.4522,2.31911 1.0966,4.97339 3.7747,15.5455 4.3575,30.96826 1.8006,47.64174 -1.6274,10.6107 -4.641,22.2839 -8.3948,32.51545 -1.3961,3.80542 -1.5967,4.61343 -1.0303,4.15107 l 0,0 z"
               id="path5868"
               inkscape:connector-curvature="0" />
            <path
               sodipodi:nodetypes="ccc"
               inkscape:connector-curvature="0"
               id="path5870"
               d="m 1285,305 0,-87 -82.7418,26.88442"
               style="fill:none;stroke:#003100;stroke-width:5;stroke-linecap:square;stroke-linejoin:miter;stroke-miterlimit:4;stroke-opacity:1;stroke-dasharray:none" />
            <path
               inkscape:connector-curvature="0"
               id="path5872"
               d="m 1200.001,337.65119 c 0.069,-0.17816 18.732,-25.92861 41.4728,-57.22322 l 41.3466,-56.89928 0.096,40.10383 c 0.054,22.0571 0.044,40.15646 -0.022,40.22082 -0.064,0.0643 -2.3453,0.28658 -5.0689,0.49384 -15.951,1.21389 -30.799,5.42546 -45.8663,13.00976 -9.5884,4.82647 -19.7591,11.29993 -28.3299,18.03169 -3.1878,2.50368 -3.8943,2.94415 -3.6295,2.26256 l 0,0 z"
               style="fill:#5ab124;fill-opacity:1;stroke:none" />
          </g>
          <g
             inkscape:transform-center-y="127.86584"
             inkscape:transform-center-x="378.20329"
             id="g5854"
             transform="matrix(-0.809017,-0.58778525,0.58778525,-0.809017,984.8158,1622.1517)">
            <path
               style="fill:none;stroke:#003100;stroke-width:5;stroke-linecap:butt;stroke-linejoin:miter;stroke-miterlimit:4;stroke-opacity:1;stroke-dasharray:none"
               d="m 1182.5825,358.6967 100.599,-138.46257"
               id="path5856"
               inkscape:connector-curvature="0"
               sodipodi:nodetypes="cc" />
            <path
               inkscape:connector-curvature="0"
               id="path5858"
               d="m 1197.5377,335.15376 c 0.1483,-0.12071 18.8711,-25.82757 41.6069,-57.12589 l 41.334,-56.90829 -38.1706,12.30144 c -20.9943,6.76469 -38.2046,12.3672 -38.2454,12.44983 -0.041,0.0809 0.4522,2.31911 1.0966,4.97339 3.7747,15.5455 4.3575,30.96826 1.8006,47.64174 -1.6274,10.6107 -4.641,22.2839 -8.3948,32.51545 -1.3961,3.80542 -1.5967,4.61343 -1.0303,4.15107 l 0,0 z"
               style="fill:#217200;fill-opacity:1;stroke:none" />
            <path
               style="fill:none;stroke:#003100;stroke-width:5;stroke-linecap:square;stroke-linejoin:miter;stroke-miterlimit:4;stroke-opacity:1;stroke-dasharray:none"
               d="m 1285,305 0,-87 -82.7418,26.88442"
               id="path5860"
               inkscape:connector-curvature="0"
               sodipodi:nodetypes="ccc" />
            <path
               style="fill:#5ab124;fill-opacity:1;stroke:none"
               d="m 1200.001,337.65119 c 0.069,-0.17816 18.732,-25.92861 41.4728,-57.22322 l 41.3466,-56.89928 0.096,40.10383 c 0.054,22.0571 0.044,40.15646 -0.022,40.22082 -0.064,0.0643 -2.3453,0.28658 -5.0689,0.49384 -15.951,1.21389 -30.799,5.42546 -45.8663,13.00976 -9.5884,4.82647 -19.7591,11.29993 -28.3299,18.03169 -3.1878,2.50368 -3.8943,2.94415 -3.6295,2.26256 l 0,0 z"
               id="path5862"
               inkscape:connector-curvature="0" />
          </g>
          <g
             transform="matrix(0.30901699,-0.95105652,0.95105652,0.30901699,-354.81357,1303.4222)"
             id="g5844"
             inkscape:transform-center-x="233.66344"
             inkscape:transform-center-y="-321.74457">
            <path
               sodipodi:nodetypes="cc"
               inkscape:connector-curvature="0"
               id="path5846"
               d="m 1182.5825,358.6967 100.599,-138.46257"
               style="fill:none;stroke:#003100;stroke-width:5;stroke-linecap:butt;stroke-linejoin:miter;stroke-miterlimit:4;stroke-opacity:1;stroke-dasharray:none" />
            <path
               style="fill:#217200;fill-opacity:1;stroke:none"
               d="m 1197.5377,335.15376 c 0.1483,-0.12071 18.8711,-25.82757 41.6069,-57.12589 l 41.334,-56.90829 -38.1706,12.30144 c -20.9943,6.76469 -38.2046,12.3672 -38.2454,12.44983 -0.041,0.0809 0.4522,2.31911 1.0966,4.97339 3.7747,15.5455 4.3575,30.96826 1.8006,47.64174 -1.6274,10.6107 -4.641,22.2839 -8.3948,32.51545 -1.3961,3.80542 -1.5967,4.61343 -1.0303,4.15107 l 0,0 z"
               id="path5848"
               inkscape:connector-curvature="0" />
            <path
               sodipodi:nodetypes="ccc"
               inkscape:connector-curvature="0"
               id="path5850"
               d="m 1285,305 0,-87 -82.7418,26.88442"
               style="fill:none;stroke:#003100;stroke-width:5;stroke-linecap:square;stroke-linejoin:miter;stroke-miterlimit:4;stroke-opacity:1;stroke-dasharray:none" />
            <path
               inkscape:connector-curvature="0"
               id="path5852"
               d="m 1200.001,337.65119 c 0.069,-0.17816 18.732,-25.92861 41.4728,-57.22322 l 41.3466,-56.89928 0.096,40.10383 c 0.054,22.0571 0.044,40.15646 -0.022,40.22082 -0.064,0.0643 -2.3453,0.28658 -5.0689,0.49384 -15.951,1.21389 -30.799,5.42546 -45.8663,13.00976 -9.5884,4.82647 -19.7591,11.29993 -28.3299,18.03169 -3.1878,2.50368 -3.8943,2.94415 -3.6295,2.26256 l 0,0 z"
               style="fill:#5ab124;fill-opacity:1;stroke:none" />
          </g>
          <g
             transform="translate(-465.6521,-69.133858)"
             inkscape:transform-center-y="-321.65165"
             inkscape:transform-center-x="-233.79125"
             id="g5838">
            <path
               style="fill:none;stroke:#003100;stroke-width:5;stroke-linecap:butt;stroke-linejoin:miter;stroke-miterlimit:4;stroke-opacity:1;stroke-dasharray:none"
               d="m 1182.5825,358.6967 100.599,-138.46257"
               id="path2999-1-7"
               inkscape:connector-curvature="0"
               sodipodi:nodetypes="cc" />
            <path
               inkscape:connector-curvature="0"
               id="path5816"
               d="m 1197.5377,335.15376 c 0.1483,-0.12071 18.8711,-25.82757 41.6069,-57.12589 l 41.334,-56.90829 -38.1706,12.30144 c -20.9943,6.76469 -38.2046,12.3672 -38.2454,12.44983 -0.041,0.0809 0.4522,2.31911 1.0966,4.97339 3.7747,15.5455 4.3575,30.96826 1.8006,47.64174 -1.6274,10.6107 -4.641,22.2839 -8.3948,32.51545 -1.3961,3.80542 -1.5967,4.61343 -1.0303,4.15107 l 0,0 z"
               style="fill:#217200;fill-opacity:1;stroke:none" />
            <path
               style="fill:none;stroke:#003100;stroke-width:5;stroke-linecap:square;stroke-linejoin:miter;stroke-miterlimit:4;stroke-opacity:1;stroke-dasharray:none"
               d="m 1285,305 0,-87 -82.7418,26.88442"
               id="path5792"
               inkscape:connector-curvature="0"
               sodipodi:nodetypes="ccc" />
            <path
               style="fill:#5ab124;fill-opacity:1;stroke:none"
               d="m 1200.001,337.65119 c 0.069,-0.17816 18.732,-25.92861 41.4728,-57.22322 l 41.3466,-56.89928 0.096,40.10383 c 0.054,22.0571 0.044,40.15646 -0.022,40.22082 -0.064,0.0643 -2.3453,0.28658 -5.0689,0.49384 -15.951,1.21389 -30.799,5.42546 -45.8663,13.00976 -9.5884,4.82647 -19.7591,11.29993 -28.3299,18.03169 -3.1878,2.50368 -3.8943,2.94415 -3.6295,2.26256 l 0,0 z"
               id="path5814"
               inkscape:connector-curvature="0" />
          </g>
          <g
             inkscape:transform-center-y="128.16651"
             inkscape:transform-center-x="-378.15449"
             id="g5874"
             transform="matrix(0.309017,0.95105651,-0.95105651,0.309017,805.4755,-598.69076)">
            <path
               style="fill:none;stroke:#003100;stroke-width:5;stroke-linecap:butt;stroke-linejoin:miter;stroke-miterlimit:4;stroke-opacity:1;stroke-dasharray:none"
               d="m 1182.5825,358.6967 100.599,-138.46257"
               id="path5876"
               inkscape:connector-curvature="0"
               sodipodi:nodetypes="cc" />
            <path
               inkscape:connector-curvature="0"
               id="path5878"
               d="m 1197.5377,335.15376 c 0.1483,-0.12071 18.8711,-25.82757 41.6069,-57.12589 l 41.334,-56.90829 -38.1706,12.30144 c -20.9943,6.76469 -38.2046,12.3672 -38.2454,12.44983 -0.041,0.0809 0.4522,2.31911 1.0966,4.97339 3.7747,15.5455 4.3575,30.96826 1.8006,47.64174 -1.6274,10.6107 -4.641,22.2839 -8.3948,32.51545 -1.3961,3.80542 -1.5967,4.61343 -1.0303,4.15107 l 0,0 z"
               style="fill:#217200;fill-opacity:1;stroke:none" />
            <path
               style="fill:none;stroke:#003100;stroke-width:5;stroke-linecap:square;stroke-linejoin:miter;stroke-miterlimit:4;stroke-opacity:1;stroke-dasharray:none"
               d="m 1285,305 0,-87 -82.7418,26.88442"
               id="path5880"
               inkscape:connector-curvature="0"
               sodipodi:nodetypes="ccc" />
            <path
               style="fill:#5ab124;fill-opacity:1;stroke:none"
               d="m 1200.001,337.65119 c 0.069,-0.17816 18.732,-25.92861 41.4728,-57.22322 l 41.3466,-56.89928 0.096,40.10383 c 0.054,22.0571 0.044,40.15646 -0.022,40.22082 -0.064,0.0643 -2.3453,0.28658 -5.0689,0.49384 -15.951,1.21389 -30.799,5.42546 -45.8663,13.00976 -9.5884,4.82647 -19.7591,11.29993 -28.3299,18.03169 -3.1878,2.50368 -3.8943,2.94415 -3.6295,2.26256 l 0,0 z"
               id="path5882"
               inkscape:connector-curvature="0" />
          </g>
        </g>
        <g
           id="g5637"
           inkscape:transform-center-y="-16.543409"
           style="fill:#ffffff;fill-opacity:1;stroke:#502d16;stroke-width:7.08661413;stroke-miterlimit:4;stroke-opacity:1;stroke-dasharray:none"
           transform="matrix(1.0178685,0,0,1.0178685,-483.52055,-80.033617)"
           inkscape:transform-center-x="-5.0392636e-05">
          <path
             sodipodi:nodetypes="scscscscscs"
             inkscape:connector-curvature="0"
             d="M 557.75872,466.3071 C 591.75059,361.69088 709.19233,210.58681 840.10516,389.9236 710,210 890,145 1000,145 c 110,0 290,65 159.8949,244.92359 130.9128,-179.33674 248.3545,-28.23267 282.3464,76.38352 33.9919,104.61616 27.7963,295.89248 -183.526,227.75459 211.0137,69.08737 103.5967,227.47482 14.6048,292.1312 C 1184.3283,1050.8493 1000.4992,1104.0645 1000,882.02937 999.50085,1104.0645 815.67174,1050.8493 726.67987,986.19291 637.688,921.53653 530.27098,763.14907 741.28468,694.06168 529.96247,762.1996 523.76686,570.92332 557.75872,466.3071 z"
             style="fill:#ffffff;fill-opacity:1;stroke:#502d16;stroke-width:7.08661413;stroke-linecap:butt;stroke-linejoin:miter;stroke-miterlimit:4;stroke-opacity:1;stroke-dasharray:none"
             id="path5635" />
        </g>
        <path
           sodipodi:type="arc"
           style="fill:none;stroke:none"
           id="path4494"
           sodipodi:cx="538.2998"
           sodipodi:cy="541.72845"
           sodipodi:rx="486.86987"
           sodipodi:ry="486.86987"
           d="m 1025.1697,541.72845 c 0,268.89081 -217.97909,486.86985 -486.8699,486.86985 -268.8908,0 -486.869868,-217.97904 -486.869868,-486.86985 0,-268.8908 217.979068,-486.869868 486.869868,-486.869868 268.89079,0 486.8698,217.979038 486.8699,486.869818"
           sodipodi:start="0"
           sodipodi:end="6.2831852"
           sodipodi:open="true"
           transform="matrix(1.0049758,0,0,1.002486,-6.6275308,-2.2149779)" />
        <g
           id="g5422"
           transform="matrix(5.84534,0,0,5.84534,-4111.4584,-2427.0738)"
           style="stroke:#502d16;stroke-width:1.93474293;stroke-miterlimit:4;stroke-dasharray:none">
          <g
             transform="matrix(1.1651493,0,0,1.1651493,728.37443,441.33126)"
             id="g5388"
             style="fill:#ffcc00;stroke:#502d16;stroke-width:1.5607692;stroke-miterlimit:4;stroke-dasharray:none">
            <path
               id="path5390"
               d="M 57,98.501 43.999,85.5 46.217,83.282 30.717,67.781 28.499,70 15.498,57 34.987,37.51 l 13.002,13 -4.234,4.235 2.66,2.661 10.992,-10.993 -2.66,-2.66 -4.089,4.089 L 37.656,34.841 57,15.497 70.001,28.498 67.784,30.716 83.282,46.216 85.501,43.998 98.503,57 79.159,76.343 66.157,63.342 70.246,59.253 68.083,57.09 57.091,68.083 59.253,70.245 63.487,66.011 76.49,79.014 57,98.501 z"
               inkscape:connector-curvature="0"
               style="fill:#ffcc00;stroke:#502d16;stroke-width:1.5607692;stroke-miterlimit:4;stroke-dasharray:none" />
          </g>
        </g>
        <g
           id="g3125">
          <path
             sodipodi:nodetypes="zzzczzscz"
             inkscape:connector-curvature="0"
             id="path5672"
             d="m 639.3479,175.86614 c -30,0 -63.0005,20 -105,20 -41.99953,0 -75,-20 -105,-20 -30,0 -45,20 -5,80 -95,-70 -35,-117 5,-117 40,0 63.00047,17 105,17 41.9995,0 65,-17 105,-17 40,0 100,47 5,117 40,-60 25,-80 -5,-80 z"
             style="fill:#dbdee3;fill-opacity:1;stroke:#e6e6e6;stroke-width:3.20000005;stroke-linecap:butt;stroke-linejoin:miter;stroke-miterlimit:4;stroke-opacity:1;stroke-dasharray:none;filter:url(#filter5728)" />
          <path
             style="fill:#dbdee3;fill-opacity:1;stroke:#e6e6e6;stroke-width:3.20000005;stroke-linecap:butt;stroke-linejoin:miter;stroke-miterlimit:4;stroke-opacity:1;stroke-dasharray:none;filter:url(#filter5728)"
             d="m 1105,245 c -30,0 -63.0005,20 -105,20 -41.99953,0 -75,-20 -105,-20 -30,0 -45,20 -5,80 -95,-70 -35,-117 5,-117 40,0 63.00047,17 105,17 41.9995,0 65,-17 105,-17 40,0 100,47 5,117 40,-60 25,-80 -5,-80 z"
             id="path5766"
             inkscape:connector-curvature="0"
             sodipodi:nodetypes="zzzczzscz"
             transform="matrix(0.30901699,-0.95105651,0.95105651,0.30901699,-354.81357,1303.4223)" />
          <path
             sodipodi:nodetypes="zzzczzscz"
             inkscape:connector-curvature="0"
             id="path5772"
             d="m 1105,245 c -30,0 -63.0005,20 -105,20 -41.99953,0 -75,-20 -105,-20 -30,0 -45,20 -5,80 -95,-70 -35,-117 5,-117 40,0 63.00047,17 105,17 41.9995,0 65,-17 105,-17 40,0 100,47 5,117 40,-60 25,-80 -5,-80 z"
             style="fill:#dbdee3;fill-opacity:1;stroke:#e6e6e6;stroke-width:3.20000005;stroke-linecap:butt;stroke-linejoin:miter;stroke-miterlimit:4;stroke-opacity:1;stroke-dasharray:none;filter:url(#filter5728)"
             transform="matrix(-0.80901699,-0.58778525,0.58778525,-0.80901699,984.8159,1622.1517)" />
          <path
             style="fill:#dbdee3;fill-opacity:1;stroke:#e6e6e6;stroke-width:3.20000005;stroke-linecap:butt;stroke-linejoin:miter;stroke-miterlimit:4;stroke-opacity:1;stroke-dasharray:none;filter:url(#filter5728)"
             d="m 1105,245 c -30,0 -63.0005,20 -105,20 -41.99953,0 -75,-20 -105,-20 -30,0 -45,20 -5,80 -95,-70 -35,-117 5,-117 40,0 63.00047,17 105,17 41.9995,0 65,-17 105,-17 40,0 100,47 5,117 40,-60 25,-80 -5,-80 z"
             id="path5778"
             inkscape:connector-curvature="0"
             sodipodi:nodetypes="zzzczzscz"
             transform="matrix(-0.80901699,0.58778525,-0.58778525,-0.80901699,1701.9139,446.58124)" />
          <path
             sodipodi:nodetypes="zzzczzscz"
             inkscape:connector-curvature="0"
             id="path5784"
             d="m 1105,245 c -30,0 -63.0005,20 -105,20 -41.99953,0 -75,-20 -105,-20 -30,0 -45,20 -5,80 -95,-70 -35,-117 5,-117 40,0 63.00047,17 105,17 41.9995,0 65,-17 105,-17 40,0 100,47 5,117 40,-60 25,-80 -5,-80 z"
             style="fill:#dbdee3;fill-opacity:1;stroke:#e6e6e6;stroke-width:3.20000005;stroke-linecap:butt;stroke-linejoin:miter;stroke-miterlimit:4;stroke-opacity:1;stroke-dasharray:none;filter:url(#filter5728)"
             transform="matrix(0.30901699,0.95105651,-0.95105651,0.30901699,805.4754,-598.69076)" />
        </g>
      </g>
    </g>
    <text
       xml:space="preserve"
       style="font-size:40.51908493px;font-style:normal;font-variant:normal;font-weight:normal;font-stretch:normal;text-align:center;line-height:125%;letter-spacing:0px;word-spacing:0px;text-anchor:middle;fill:#fcc00f;fill-opacity:0.94117647;stroke:#502d16;stroke-width:0.99586666;stroke-opacity:1;font-family:Audiowide;-inkscape-font-specification:Audiowide"
       x="349.81796"
       y="402.97403"
       id="text3187"
       sodipodi:linespacing="125%"><tspan
         sodipodi:role="line"
         x="349.81796"
         y="402.97403"
         id="tspan3191"
         style="stroke-width:0.99586666">York</tspan><tspan
         sodipodi:role="line"
         x="349.81796"
         y="453.62292"
         id="tspan3195"
         style="stroke-width:0.99586666">Hackspace</tspan></text>
    <flowRoot
       xml:space="preserve"
       id="flowRoot3971"
       style="font-size:16.15517426px;font-style:italic;font-variant:normal;font-weight:normal;font-stretch:normal;text-align:start;line-height:125%;letter-spacing:0px;word-spacing:0px;text-anchor:start;fill:#502d16;fill-opacity:1;stroke:none;font-family:FreeSerif;-inkscape-font-specification:FreeSerif Italic"
       transform="matrix(0.86659545,0,0,0.86659545,12.824195,699.82965)"><flowRegion
         id="flowRegion3973"><rect
           id="rect3975"
           width="481.63177"
           height="379.26505"
           x="47.608341"
           y="230.25273"
           style="font-size:16.15517426px;font-style:italic;font-variant:normal;font-weight:normal;font-stretch:normal;text-align:start;text-anchor:start;fill:#502d16;font-family:FreeSerif;-inkscape-font-specification:FreeSerif Italic" /></flowRegion><flowPara
         id="flowPara3979"
         style="font-size:16.15517426px;fill:#502d16">A hacker, to me, is someone who does what they do because they love it. You know, whether or not it makes them money they're doing it because they love it; they're really into it. Whatever they're enthusiastic about they learn as much as they can and then they improve upon it and then they share it with the world. That's what a hacker is to me.</flowPara><flowPara
         style="font-size:16.15517426px;font-style:normal;text-align:end;text-anchor:end;fill:#502d16"
         id="flowPara3985">- Mitch Altman</flowPara><flowPara
         id="flowPara3981"
         style="font-size:16.15517426px;fill:#502d16" /></flowRoot>    <flowRoot
       xml:space="preserve"
       id="flowRoot3987"
       style="font-size:19.86496544px;font-style:normal;font-variant:normal;font-weight:bold;font-stretch:normal;text-align:center;line-height:125%;letter-spacing:0px;word-spacing:0px;text-anchor:middle;fill:#000000;fill-opacity:1;stroke:none;font-family:FreeSerif;-inkscape-font-specification:FreeSerif Bold"
       transform="matrix(1.2542623,0,0,1.2542623,-85.013713,241.16111)"><flowRegion
         id="flowRegion3989"><rect
           id="rect3991"
           width="389.17648"
           height="111.63335"
           x="82.083344"
           y="233.53606"
           style="font-size:19.86496544px;font-style:normal;font-variant:normal;font-weight:bold;font-stretch:normal;text-align:center;text-anchor:middle;font-family:FreeSerif;-inkscape-font-specification:FreeSerif Bold" /></flowRegion><flowPara
         id="flowPara3993">Every Wednesday from 8pm at Guppy's Enterprise Club on Nunnery Lane</flowPara></flowRoot>    <flowRoot
       xml:space="preserve"
       id="flowRoot3995"
       style="font-size:20px;font-style:normal;font-variant:normal;font-weight:normal;font-stretch:normal;text-align:center;line-height:125%;letter-spacing:0px;word-spacing:0px;text-anchor:middle;fill:#502d16;fill-opacity:1;stroke:none;font-family:DejaVu Sans;-inkscape-font-specification:DejaVu Sans"
       transform="matrix(0.83920208,0,0,0.83920208,139.7029,229.04752)"><flowRegion
         id="flowRegion3997"><rect
           id="rect3999"
           width="313.45276"
           height="65.283096"
           x="94.027542"
           y="289.04761"
           style="font-size:20px;text-align:center;text-anchor:middle;fill:#502d16" /></flowRegion><flowPara
         id="flowPara4003"
         style="font-size:20px;font-style:italic;font-variant:normal;font-weight:normal;font-stretch:normal;text-align:center;text-anchor:middle;font-family:FreeSerif;-inkscape-font-specification:FreeSerif Italic;fill:#502d16">York Hackspace is a place for anyone who is or wants to be a hacker.</flowPara></flowRoot>    <flowRoot
       xml:space="preserve"
       id="flowRoot4007"
       style="font-size:16.27935791px;font-style:normal;font-variant:normal;font-weight:normal;font-stretch:normal;text-align:center;line-height:125%;letter-spacing:0px;word-spacing:0px;text-anchor:middle;fill:#000000;fill-opacity:1;stroke:none;font-family:FreeSerif;-inkscape-font-specification:FreeSerif"
       transform="matrix(0.98283972,0,0,0.98283972,-24.79807,218.84748)"><flowRegion
         id="flowRegion4009"><rect
           id="rect4011"
           width="430.54852"
           height="312.04651"
           x="76.615036"
           y="373.78848"
           style="font-size:16.27935791px;font-style:normal;font-variant:normal;font-weight:normal;font-stretch:normal;text-align:center;text-anchor:middle;font-family:FreeSerif;-inkscape-font-specification:FreeSerif" /></flowRegion><flowPara
         id="flowPara4129" /><flowPara
         id="flowPara4167">All hackers, tinkerers and makers welcome to join.</flowPara><flowPara
         id="flowPara5081">No experience needed - just enthusiasm.</flowPara><flowPara
         id="flowPara4165">If you're interested in coming to the next meeting, please let us know via the mailing list, at least 3 hours before the meeting.</flowPara><flowPara
         id="flowPara4133"></flowPara><flowPara
         id="flowPara5087">Website: <flowSpan
   style="font-weight:bold"
   id="flowSpan5083">http://york.hackspace.org.uk</flowSpan></flowPara><flowPara
         id="flowPara4135">Mailing list: <flowSpan
   style="font-weight:bold"
   id="flowSpan5085">http://groups.google.com/group/york-hack-space</flowSpan></flowPara><flowPara
         id="flowPara4137"
         style="font-weight:bold" /><flowPara
         id="flowPara4139"></flowPara><flowPara
         id="flowPara5090">Members: £2.40 per visit</flowPara><flowPara
         id="flowPara4141">Guests: £3.10 per visit</flowPara><flowPara
         id="flowPara4145">Membership: £4.00 per year</flowPara><flowPara
         id="flowPara4147" /><flowPara
         id="flowPara4149" /><flowPara
         id="flowPara4151" /><flowPara
         id="flowPara4153" /><flowPara
         id="flowPara4155" /><flowPara
         id="flowPara4157" /><flowPara
         id="flowPara4159" /><flowPara
         id="flowPara4161" /><flowPara
         id="flowPara4163">U+2014——</flowPara></flowRoot>    <image
       y="761.81097"
       x="53.149605"
       id="image4576"
       xlink:href="file:///home/tails/Pictures/Designs/Hackspace/Flyer-Nov2014/qr-york.hackspace.org.uk.png"
       height="88.58268"
       width="88.58268" />
    <image
       y="761.81097"
       x="382.67719"
       id="image4717"
       xlink:href="file:///home/tails/Pictures/Designs/Hackspace/Flyer-Nov2014/qr-york-hack-space-group.png"
       height="88.582657"
       width="88.582657" />
    <path
       id="path4977"
       d="m 414.82004,867.09792 v 16.19798 h 24.29694 v -16.19798 h -24.29694 z m 12.14847,8.85195 -10.3009,-7.83957 h 20.60179 l -10.30089,7.83957 z m -11.13611,6.33365 v -13.53416 l 7.28276,5.54274 -4.30891,4.89104 0.12655,0.12653 4.99226,-4.40382 3.04345,2.31581 3.04344,-2.31581 4.99228,4.40382 0.12654,-0.12653 -4.30891,-4.89736 7.28275,-5.53642 v 13.53416 H 415.8324 z"
       inkscape:connector-curvature="0" />
    <g
       id="g5053"
       transform="matrix(0.06327336,0,0,0.06327336,81.242968,858.99892)">
	<path
   id="path5055"
   d="m 340.5,127 c 0.6,-0.3 1.3,-0.6 1.9,-0.9 0.6,-0.3 1.3,-0.3 1.3,-0.3 0,0 0.8,0 1,0.8 0.5,2.2 0.8,4 1.1,6.3 0.2,1.2 0.7,2.3 1.5,3.2 1.2,1.4 2.7,1.9 4.6,1.7 1.2,-0.1 2.4,-0.6 3.5,-1.2 1.7,-0.9 3.2,-2.1 4.7,-3.4 -0.2,-0.6 -0.3,-1.2 -0.4,-1.8 -1.2,-4.1 -3.2,-7.9 -6.2,-11 -1.4,-1.4 -2.9,-2.6 -4.8,-3.4 -0.7,-0.3 -1.3,-0.7 -1.8,-1.3 -0.5,-0.5 -0.9,-1.1 -1.3,-1.6 -0.4,-0.5 -0.9,-1 -1.4,-1.4 -0.2,-0.2 -0.6,-0.4 -0.9,-0.5 -1.3,-0.2 -2.4,0.2 -3.3,1.1 -0.4,0.5 -0.5,1 -0.2,1.6 0.5,1 0.7,2.1 1,3.2 0.1,0.2 0.1,0.5 0.1,0.8 -0.4,0.3 -0.8,0.7 -1.3,1 -0.4,0.3 -0.8,0.6 -1.3,1 -0.5,0.3 -0.9,0.7 -1.3,1 -0.4,0.3 -0.9,0.6 -1.2,1 -0.7,0.6 2.2,5.1 3.4,4.7 0.7,-0.3 0.7,-0.3 1.3,-0.6 z"
   inkscape:connector-curvature="0" />

	<path
   id="path5057"
   d="m 284.9,96.7 c 1.2,1.1 2.5,2 4.1,2.4 2.5,0.7 5,1.2 7.6,1.5 0.3,0 0.6,0 0.9,0 0.1,-0.3 0.2,-0.5 0.2,-0.7 0.3,-1.1 0.7,-2.2 1,-3.3 0.1,-0.5 0.3,-0.9 0.8,-1.2 0.3,-0.2 0.5,-0.4 0.8,-0.6 1.5,-1.5 1.5,-2.9 0,-4.4 -1,-1 -2.2,-1.7 -3.5,-2.2 -0.3,0.1 -0.5,0.1 -0.7,0.2 -3.5,1.3 -6.9,2.6 -10.4,3.9 -0.2,0.1 -0.4,0.1 -0.6,0.2 -1.1,0.5 -1.6,1.9 -1.1,3 0.3,0.5 0.6,0.9 0.9,1.2 z"
   inkscape:connector-curvature="0" />

	<path
   id="path5059"
   d="m 166.3,177.9 c 0.6,0 1.3,-0.2 1.8,-0.4 0.7,-0.3 0.9,-1 0.5,-1.6 -0.2,-0.2 -0.4,-0.5 -0.6,-0.6 -0.4,-0.2 -0.8,-0.4 -1.2,-0.5 -0.7,-0.2 -1.4,-0.3 -2.1,-0.4 -1.5,-0.2 -3,-0.3 -4.5,-0.4 -2.2,-0.1 -4.2,-0.8 -5.9,-2.2 -0.4,-0.3 -0.8,-0.6 -1.2,-0.9 -0.3,-0.3 -0.7,-0.5 -1.1,-0.7 -1,-0.6 -2.1,-1 -3.3,-0.9 -0.7,0.1 -1.5,0.1 -2.2,0.3 -0.8,0.2 -1.6,0.5 -2.3,1 -1,0.8 -2.2,3 -2.2,3.4 0,0.4 0.2,0.8 0.5,0.9 0.6,0.2 1.2,0.5 1.8,0.6 0.9,0.2 1.9,0.3 2.8,0.5 4.5,0.8 9.1,1.6 13.7,2 1.9,-0.1 3.7,0 5.5,-0.1 z"
   inkscape:connector-curvature="0" />

	<path
   id="path5061"
   d="m 176.3,185.4 c -1,-0.6 -2,-1.3 -2.9,-1.9 -0.3,-0.2 -0.8,-0.3 -1,-0.3 -0.2,0 -0.5,0.1 -0.8,0.2 -2.5,1.1 -5,2.3 -7.4,3.4 -0.6,0.3 -1.2,0.6 -1.8,0.9 -0.2,0.1 -0.5,0.4 -0.7,0.6 -0.2,0.2 -0.1,0.5 0.1,0.6 0.3,0.1 0.7,0.3 1,0.3 1.2,0.2 2.5,0.1 3.7,0.1 1.1,0 2.3,-0.1 3.4,-0.1 2.5,0 4.8,0.5 7,1.7 0.3,0.1 0.6,0.3 0.9,0.4 0.3,0.1 0.5,-0.1 0.7,-0.3 0.1,-0.1 0.1,-0.2 0.2,-0.4 0.4,-1.3 0.7,-2.9 0.5,-3.4 -0.2,-0.5 -0.6,-0.9 -1.2,-1.1 -0.6,-0.1 -1.2,-0.4 -1.7,-0.7 z"
   inkscape:connector-curvature="0" />

	<path
   id="path5063"
   d="M 256,32 C 132.3,32 32,132.3 32,256 32,379.7 132.3,480 256,480 379.7,480 480,379.7 480,256 480,132.3 379.7,32 256,32 z M 120.2,391.8 C 84,355.5 64,307.3 64,256 c 0,-36.2 10,-70.9 28.6,-100.9 0.1,0.1 0.1,0.3 0.2,0.3 0.2,0.1 0.3,0.3 0.4,0.4 0.2,0.1 0.3,0.2 0.5,0.3 -0.1,0.6 -0.1,1.2 -0.2,1.8 -0.4,3.3 -0.9,6.5 -1.3,9.8 -0.3,2 0.1,3.9 0.9,5.7 0.6,1.4 1.5,2.7 2.6,3.9 1.3,1.5 2.8,2.7 4.4,3.8 2.7,1.9 5.6,3.3 8.6,4.5 0.3,0.1 0.5,0.2 0.9,0.3 -0.1,1.4 -0.3,2.7 -0.5,4 -0.2,1.3 -0.5,2 -0.4,3.1 0.1,0.7 0.3,1.4 0.6,1.6 1.6,1.4 3.2,2.9 4.9,4.3 0.5,0.4 1.1,2.4 1.2,3 0.8,3.5 1.3,5.3 2.2,8.8 0.1,0.6 0.4,1.1 0.9,1.4 1.8,1.3 3.5,2.7 5.2,4 0.3,0.2 0.7,0.5 1,0.6 1.7,0.9 2.7,2.2 3.2,4 0.3,1.1 0.4,2.2 0.4,3.4 0,2.2 -0.5,4.2 -1.1,6.3 -0.4,1.5 -1.1,2.9 -1.9,4.1 -1.3,1.8 -2.5,3.6 -3.8,5.4 -1.6,2.2 -3.2,4.5 -4.7,6.7 -0.6,0.8 -1.1,1.8 -1.6,2.6 -1.2,1.9 -1.7,3.9 -2,6.1 -0.3,2.5 -0.4,4.9 -0.2,7.4 0.2,2.3 0.6,4.5 1.4,6.6 0.2,0.5 0.2,0.9 0.1,1.5 -0.5,2.3 -0.2,4.4 0.7,6.5 0.5,1.3 1.2,2.5 2,3.6 0.9,1.2 1.8,2.3 2.7,3.5 1.5,1.8 2.9,3.5 4.3,5.4 3,4 6.7,7.2 10.8,9.9 0.3,0.2 0.6,0.4 1,0.6 -0.1,0.3 -0.1,0.5 -0.2,0.8 -0.6,1.8 -1,3.7 -1,5.7 -0.1,2.8 0.5,5.4 2.1,7.7 0.7,1 1.2,1.5 2.7,2.7 0.1,0.4 0,0.8 -0.1,1.3 -0.4,3.2 -0.9,6.4 -1.3,9.6 -0.2,1.7 -0.4,3.4 -0.7,5.1 -0.1,0.7 -0.2,1.4 -0.4,2 -0.7,2.4 -1.2,4.8 -1.5,7.2 -0.1,1.6 -0.2,3.1 0.1,4.7 0.2,1.3 0.7,2.6 1.7,3.6 -0.1,0.8 -0.2,1.6 -0.3,2.4 -0.3,2.6 -0.7,5.1 -1,7.7 -0.2,1.2 -0.4,2.3 -0.6,3.4 -0.4,2.6 -0.6,5.2 -0.5,7.8 0.1,1.4 0.2,2.7 0.6,4 0.3,1.1 0.7,2.2 1.4,3.1 0.2,0.2 0.3,0.5 0.3,0.8 0.5,3.4 0.9,6.7 1.4,10.1 0.3,2.1 0.6,4.3 0.9,6.4 0.1,0.4 0.2,0.7 0.3,1 2.4,4.1 3.4,9.5 6.5,13.1 1.9,2.2 4.7,4.8 7,6.5 0.8,0.6 2.1,2.1 3.5,3.5 -13.1,-7.9 -25.4,-17.5 -36.7,-28.7 z M 434.6,197.1 c -1.8,-0.4 -3.6,-0.6 -5.4,-0.7 -3,-0.2 -6.1,-0.3 -9.1,-0.1 -0.2,0 -0.4,0 -0.6,0 -0.6,0.1 -1.1,-0.1 -1.5,-0.5 -4.6,-3.6 -9.2,-7.1 -13.8,-10.7 -0.6,-0.4 -1.1,-0.8 -1.7,-1.3 -0.7,-0.5 -1.4,-0.9 -2.2,-1.2 -1.8,-0.6 -3.6,-0.9 -5.5,-1.2 -2.8,-0.3 -5.5,-0.3 -8.3,-0.2 -0.7,0 -1.3,-0.1 -1.9,-0.3 -2.5,-1 -5.2,-1.7 -7.9,-2.1 -2.5,-0.4 -5,-0.5 -7.6,-0.4 -2.8,0.1 -5.6,0.5 -8.3,1.4 -3.6,1.1 -7.2,2.2 -10.8,3.3 -0.6,0.2 -1.1,0.5 -1.5,1 -2.5,3 -5,5.9 -7.4,8.9 -0.4,0.4 -0.8,0.7 -1.3,0.8 -6.8,1.6 -11.8,5.5 -15,11.8 -0.3,0.7 -0.6,1.3 -0.9,2 -0.2,0.4 -0.3,0.8 -0.4,1.2 -0.2,0.6 -0.1,1.2 0.2,1.8 0.1,0.1 0.1,0.2 0.2,0.4 0.5,0.9 0.7,1.8 0.7,2.8 0.1,1.6 -0.1,3.2 -0.3,4.8 -0.3,2 -0.7,4 -1.3,5.9 -1.5,4.8 -2.6,9.6 -3.5,14.5 -0.7,3.7 -1.2,7.5 -1.1,11.3 0,1.8 0.2,3.5 0.6,5.2 0.1,0.4 0.3,0.9 0.4,1.3 0.1,0.4 0.4,0.7 0.7,1 3.4,3.3 6.7,6.6 10.2,9.7 3.1,2.8 6.3,5.4 9.8,7.7 2.6,1.7 5.4,3.2 8.3,4.3 3.2,1.2 6.5,1.7 9.9,1.4 3.5,-0.3 7,-0.5 10.6,-0.6 2.5,-0.1 5,0 7.5,0.5 0.8,0.2 1.6,0.4 2.4,0.8 0.9,0.4 1.7,1 2.3,1.9 0.1,0.2 0.2,0.3 0.4,0.5 0.6,0.7 1.4,1 2.3,0.8 0.5,-0.1 1,-0.3 1.4,-0.5 0.5,-0.2 1,-0.4 1.5,-0.7 0.4,-0.2 0.8,-0.3 1.2,-0.5 1,-0.3 1.7,0 2.1,1 0.2,0.6 0.4,1.2 0.5,1.8 0.6,2.5 0.9,5 0.5,7.6 -0.2,1.8 -0.7,3.5 -1.3,5.2 -0.6,1.7 -1.3,3.3 -1.9,5 -0.5,1.2 -0.9,2.5 -1.3,3.8 -1.1,3.4 -1.1,6.9 -0.1,10.3 0.5,1.8 1.2,3.5 1.8,5.3 0.7,1.8 1.3,3.6 1.7,5.5 0.7,3.1 0.4,6.1 -0.8,9 -0.8,2.1 -1.9,3.9 -3.4,5.6 -1.1,1.2 -2.2,2.4 -3.3,3.6 -0.4,0.4 -0.8,0.9 -1.2,1.3 -1.7,1.9 -3.2,3.9 -4.3,6.2 -0.9,1.8 -1.8,3.7 -2.5,5.6 -1,2.8 -1.2,5.6 -0.6,8.5 0.5,2.2 1,4.4 1.4,6.6 0.3,1.4 0.5,2.8 0.7,4.1 0.1,0.7 0.1,1.5 -0.1,2.2 -0.3,1.2 -0.7,2.3 -1.2,3.5 -1.2,3.1 -2.7,6 -4.1,9 -1.6,3.3 -3.1,6.6 -4.6,9.9 -0.7,1.6 -1.3,3.3 -1.8,5 -0.2,0.7 -0.3,1.5 -0.4,2.3 -0.1,1 0.6,2.2 1.6,2.8 -31.8,22 -69.5,33.9 -109,33.9 -32.7,0 -64.1,-8.1 -91.9,-23.4 0,-0.3 -0.1,-0.6 -0.1,-0.9 -1.2,-6.5 -3.6,-19 -4.8,-25.4 -0.1,-0.7 -0.2,-1.5 -0.2,-1.9 0,-0.4 0.1,-1.4 0.3,-1.8 1,-2.1 1.7,-3.8 2.7,-5.9 0.9,-1.9 1.7,-3.8 2.6,-5.7 0.3,-0.6 0.7,-1.2 1.2,-1.7 2.3,-2.2 4.5,-4.4 6.7,-6.5 0.3,-0.3 0.7,-0.6 1.1,-0.9 4.3,-2.9 8.7,-5.8 13,-8.7 0.7,-0.5 1.2,-1 1.7,-1.7 1.9,-2.9 3.9,-5.8 5.8,-8.8 0.8,-1.3 1.5,-2.6 2.3,-3.9 0.2,-0.3 0.4,-0.6 0.6,-0.8 2.6,-3.3 5.2,-6.6 7.7,-9.9 0.4,-0.5 0.8,-0.8 1.5,-0.9 4.2,-0.9 8.3,-2.2 12.1,-4.1 0.9,-0.5 1.8,-1 2.7,-1.5 0.4,-0.2 0.7,-0.5 0.9,-0.9 2.8,-3.8 5.5,-7.7 8.3,-11.5 0.3,-0.4 0.5,-0.9 0.7,-1.3 1.9,-5.2 3.9,-10.3 5.8,-15.5 0.2,-0.6 0.5,-1 1,-1.3 5.5,-3.6 8.8,-8.6 9.8,-15.1 0.2,-1.5 0.3,-2.9 0.1,-4.4 -0.2,-1.5 -1,-2.9 -1.6,-3.6 -2.6,-3.2 -4.8,-4.6 -8.3,-6.7 -4.5,-2.6 -9.2,-4.4 -14.3,-5.6 -1.2,-0.3 -2.9,-0.8 -3.3,-1 -0.4,-0.2 -0.7,-0.4 -0.8,-0.8 -1.1,-2.2 -2.2,-4.4 -3.6,-6.4 -1.2,-1.8 -2.5,-3.5 -4.1,-5 -0.3,-0.3 -0.4,-0.6 -0.5,-1 -0.4,-1.3 -0.8,-2.7 -1.3,-4 -1.7,-4.3 -4.2,-8.1 -7.4,-11.4 -5.3,-5.4 -11.7,-9.2 -18.9,-11.6 -0.6,-0.2 -1,-0.5 -1.4,-1 -2.7,-3.8 -6.3,-6.4 -10.5,-8.1 -1.5,-0.6 -3,-1.1 -4.6,-1.4 -0.4,-0.1 -0.8,-0.2 -1.1,-0.4 -2.8,-1.4 -5.7,-2.8 -8.5,-4.2 -0.5,-0.2 -0.9,-0.5 -1.2,-0.9 -0.7,-0.8 -1.6,-1.4 -2.5,-2 -1.1,-0.6 -2.2,-0.9 -3.4,-0.9 -1.4,0.1 -2.6,0.7 -3.6,1.7 -0.2,0.2 -0.4,0.5 -0.6,0.8 -0.7,1.2 -1.4,2.4 -2.4,3.4 -1.5,1.5 -3.2,2.5 -5.4,2.8 -1.4,0.2 -2.9,0 -4.2,-0.4 -1.8,-0.5 -3.4,-1.4 -5,-2.5 -0.4,-0.3 -0.8,-0.5 -1.3,-0.8 -2.9,-1.7 -4.7,-4.2 -5.2,-7.5 -0.1,-0.7 -0.1,-1.4 -0.2,-2.1 -0.1,-3.1 0.1,-6.3 0.4,-9.4 0.1,-0.8 0.2,-1.1 0.2,-1.6 0,-0.4 -0.2,-1.1 -0.7,-1.3 -0.7,-0.3 -1.3,-0.7 -1.8,-1.2 -0.4,-0.3 -0.7,-0.7 -1,-1.1 -0.6,-0.9 0.2,-1.5 0.7,-2.5 0.4,-0.8 0,-1.8 0.8,-2.3 0.8,-0.5 1.7,-1.1 2.5,-1.7 0.9,-0.7 1.7,-1.4 2.5,-2.3 0.4,-0.5 0.7,-1 0.9,-1.6 0.4,-1.2 0.3,-2.3 -0.5,-3.3 -0.7,-0.9 -1,-1.6 -2.1,-2.1 -0.3,-0.1 -1.2,0 -1.5,0.1 -1.2,0.3 -2.3,0.6 -3.5,0.8 -1.5,0.3 -3.1,0.3 -4.7,-0.1 -2,-0.5 -3.3,-1.7 -4.1,-3.6 -0.5,-1.4 -0.7,-2.8 -0.6,-4.3 0.1,-2.9 0.7,-5.7 1.6,-8.4 0.1,-0.3 0.2,-0.6 0.4,-0.9 4.6,-6.5 10.6,-11.1 18.3,-13.4 1.9,-0.5 3.7,-0.9 5.7,-1.1 0.8,-0.1 1.5,0 2.3,0.1 2.2,0.2 4.3,0.6 6.3,1.4 1.2,0.4 2.2,1 3.2,1.8 2.1,1.6 3.3,3.6 3.5,6.2 0.1,1.7 0.6,3.3 1.2,4.8 0.3,1 0.7,1.9 1.2,2.9 0.3,0.6 0.6,1.1 1,1.6 0.3,0.4 0.7,0.7 1.1,1 0.7,0.5 1.5,0.4 2.3,0.1 0.4,-0.2 0.7,-0.5 0.8,-1 0.1,-0.9 0.3,-1.8 0.4,-2.8 0.6,-3.7 1.2,-7.4 1.7,-11 0.3,-1.9 0.6,-3.7 0.9,-5.6 0,-0.2 0.1,-0.4 0.1,-0.6 3.7,-5.5 16.7,-6.4 22,-12.1 0.2,0.1 0.3,0.2 0.5,0.4 0.6,0.5 1.2,0.7 1.9,0.7 1,0.1 2,-0.1 3,-0.3 1.4,-0.4 2.8,-0.9 4.1,-1.6 1.1,-0.5 2.1,-1.1 3.1,-1.7 0.5,-0.3 0.9,-0.5 1.5,-0.6 3.1,-0.9 6.2,-1.8 9.3,-2.7 0.6,-0.2 1.2,-0.2 1.8,-0.1 2.6,0.3 5.2,0.3 7.9,0 1.8,-0.2 3.5,-0.5 5.2,-1 0.3,-0.1 0.6,-0.2 0.9,-0.3 0.4,-0.1 0.6,-0.3 0.8,-0.7 0.4,-0.8 0.9,-1.5 1.4,-2.2 0.4,-0.6 0.9,-1.1 1.5,-1.6 0.4,-0.3 0.8,-0.6 1.3,-0.8 0.9,-0.4 1.9,-0.4 2.9,-0.1 0.8,0.3 1.4,0.7 2,1.3 0.5,0.5 1,0.8 1.6,1.1 0.8,0.4 1.7,0.7 2.6,0.9 2,0.4 3.8,-0.1 5.2,-1.5 0.8,-0.7 1.3,-1.6 1.8,-2.5 0.8,-1.5 1.3,-3 1.7,-4.7 0.5,-2 0.8,-4 1,-6.1 0,-0.3 0,-0.7 0,-1.1 -0.2,0.1 -0.5,0.1 -0.6,0.2 -0.9,0.4 -1.7,0.7 -2.6,0.9 -0.3,0 -0.5,0.1 -0.8,0 -0.6,-0.1 -0.9,-0.5 -0.8,-1.1 0.1,-0.5 0.2,-1 0.5,-1.4 0.5,-0.9 1,-1.7 1.5,-2.6 0.6,-1 1.2,-1.9 1.7,-2.9 0.3,-0.6 0.5,-1.3 0.5,-2 0.1,-0.9 -0.2,-1.7 -0.9,-2.3 -0.4,-0.4 -0.9,-0.8 -1.4,-1.1 -0.6,-0.4 -1.2,-0.8 -1.8,-1.3 -0.9,-0.7 -1.7,-1.5 -2.3,-2.6 -0.1,-0.1 -0.2,-0.3 -0.3,-0.4 -1.1,-1.6 -2.6,-2.1 -4.4,-1.6 -1.4,0.4 -2.6,1.2 -3.7,2.3 -0.6,0.6 -1.1,1.1 -1.7,1.7 -0.7,0.6 -1.5,1.2 -2.3,1.6 -1.4,0.7 -2.9,0.7 -4.3,0 -0.4,-0.2 -0.7,-0.4 -1.1,-0.6 -0.2,-0.1 -0.5,-0.2 -0.7,-0.3 -0.6,-0.2 -1,-0.1 -1.4,0.5 -0.2,0.3 -0.4,0.6 -0.5,1 -0.5,1.5 -1.5,2.7 -2.6,3.8 -1.4,1.3 -2.9,2.3 -4.6,3.2 -1.3,0.7 -2.6,1.2 -4,1.8 -0.5,0.2 -1.1,0.3 -1.7,0.3 -1.6,-0.1 -2.7,-0.8 -3.4,-2.3 -0.4,-1 -0.6,-2 -0.6,-3 -0.1,-1.9 0.1,-3.7 0.5,-5.6 0.1,-0.7 0.3,-1.3 0.4,-1.9 0.1,-0.5 0.3,-0.8 0.7,-1 1.9,-1.2 3.7,-2.4 5.5,-3.6 0.2,-0.1 0.4,-0.3 0.7,-0.4 1.3,-0.8 2.5,-1.7 3.6,-2.7 0.9,-0.9 2,-1.7 3.1,-2.4 0.5,-0.3 1,-0.5 1.5,-0.7 0.2,-0.1 0.5,-0.1 0.8,-0.2 0.8,-0.1 1.4,0.2 1.8,0.9 0.8,1.6 2.2,1.9 3.8,1.8 0.8,0 1.7,-0.2 2.5,-0.4 0.9,-0.2 1.7,-0.6 2.5,-0.9 0.4,-0.2 0.8,-0.3 1.3,-0.3 2,-0.1 3.9,-0.1 5.9,-0.2 0.3,0 0.6,0 0.9,0.3 1.6,1.1 3.1,2.2 4.5,3.5 0.9,0.9 1.2,1.3 1.7,2.4 0.2,-0.2 0.5,-0.4 0.7,-0.6 1.7,-1.5 3.3,-3.1 5,-4.6 0.4,-0.3 0.8,-0.7 1.1,-1 1.7,-1.3 3.3,-2.5 5,-3.8 0.3,-0.2 0.5,-0.4 0.8,-0.6 0.1,-0.4 -0.2,-0.7 -0.3,-1 -1.1,-2.5 -2.3,-4.9 -3.5,-7.4 -0.1,-0.2 -0.2,-0.4 -0.3,-0.6 1.1,0 2.3,0 3.4,0 1.7,0 3.3,0 5,0.1 0,0 0,0 0,0 0.2,0.6 0.5,1.2 0.7,1.8 0.1,0.3 0.2,0.6 0,1 -0.3,0.9 -0.7,1.7 -1,2.6 -1.2,3.1 -2.4,6.2 -3.6,9.3 -0.2,0.5 -0.3,0.9 -0.2,1.5 0.4,4 1.1,7.8 2.6,11.6 0.9,2.2 2,4.4 3.5,6.3 1.4,1.8 3.1,3.3 5.2,4.3 0.2,0.1 0.5,0.2 0.7,0.3 0.1,0 0.1,0 0.3,0 0.2,-0.2 0.4,-0.5 0.6,-0.7 2.8,-3.5 5.7,-7 8.5,-10.4 1.9,-2.3 3.9,-4.5 5.9,-6.8 0.2,-0.2 0.4,-0.4 0.5,-0.6 1,-1.1 1,-1.1 2.5,-1.4 2.1,-0.4 4.2,-0.7 6.3,-1.1 1.2,-0.2 0.9,0 1.5,-1.1 2.2,-3.5 4.4,-7 6.6,-10.5 0.1,-0.2 0.3,-0.4 0.4,-0.6 20.3,4.9 39.5,13.2 57.1,24.4 -3.2,0.4 -6.4,0.6 -9.5,1 -0.1,0.2 -0.1,0.4 -0.1,0.6 -0.4,3.9 -0.4,7.8 0.2,11.7 0.3,1.6 0.7,3.3 1.4,4.8 0.5,1.1 1.1,2 2,2.8 0.4,0.4 0.8,0.6 1.4,0.7 1.7,0.2 3.3,0.4 4.9,0.7 0.4,0.1 0.8,0.1 1.3,0.2 1.3,2.1 2.5,4.2 3.8,6.3 3,0.5 6.1,0.8 9.1,1.3 0,0.8 -0.2,1.5 -0.2,2.2 -0.2,1.7 -0.5,3.4 -0.7,5 -0.1,0.5 0,1 0.2,1.6 0.7,1.5 1.3,3.1 2,4.6 0.1,0.3 0.2,0.5 0.3,0.8 -0.2,0.2 -0.3,0.5 -0.5,0.7 -1.6,2.1 -3.2,4.1 -4.7,6.2 -0.2,0.3 -0.5,0.6 -0.8,0.8 -2.4,1.5 -4.8,3 -7.1,4.5 -0.9,-0.1 -1.8,-0.2 -2.6,-0.2 -1.8,0 -3.6,0.3 -5.4,0.8 -1.2,0.3 -2.3,0.8 -3.5,1.2 -0.3,0.1 -0.6,0.2 -0.8,0.4 -1.4,0.8 -2.8,1.6 -4.3,2.4 -0.1,0.1 -0.3,0.2 -0.4,0.3 0.1,0.2 0.2,0.4 0.3,0.6 1.9,3.4 3.7,6.8 5.6,10.1 1.1,2 2.6,3.8 4.3,5.4 1.3,1.2 2.7,2.1 4.3,2.7 2,0.8 4.1,0.9 6.2,0.4 2.8,-0.7 5.7,-1.4 8.5,-2.2 0.3,-0.1 0.5,-0.2 0.8,-0.2 0.1,-0.5 0.1,-0.9 0.2,-1.4 0.3,-2.5 0.5,-5 0.9,-7.5 0.2,-1.5 0.5,-3 0.8,-4.4 0.1,-0.5 0.3,-0.9 0.5,-1.4 0,-0.1 0.2,-0.2 0.3,-0.2 0.1,0 0.3,0.1 0.3,0.2 0.2,0.8 2.7,-1.5 2.7,-1.5 0,0 6.2,-4.4 23.6,16 17.4,20.4 27.1,14.4 27.1,14.4 1.1,1.3 2,2.8 2.7,4.3 0.9,2 1.5,4.1 1.8,6.2 0,0.3 0,0.5 0,0.8 -1.2,-0.3 -1.5,-0.4 -1.9,-0.4 z"
   inkscape:connector-curvature="0" />

</g>
  </g>
</svg>
